<svg width="24" height="24" viewBox="0 0 24 24" fill="none" xmlns="http://www.w3.org/2000/svg">
<path d="M11.9997 13.1767C12.6495 13.1767 13.1762 12.6499 13.1762 12.0002C13.1762 11.3505 12.6495 10.8237 11.9997 10.8237C11.35 10.8237 10.8232 11.3505 10.8232 12.0002C10.8232 12.6499 11.35 13.1767 11.9997 13.1767Z" fill="#35333A" stroke="#35333A" stroke-width="1.17647" stroke-linecap="round" stroke-linejoin="round"/>
<path d="M20.2351 13.1767C20.8848 13.1767 21.4115 12.6499 21.4115 12.0002C21.4115 11.3505 20.8848 10.8237 20.2351 10.8237C19.5853 10.8237 19.0586 11.3505 19.0586 12.0002C19.0586 12.6499 19.5853 13.1767 20.2351 13.1767Z" fill="#35333A" stroke="#35333A" stroke-width="1.17647" stroke-linecap="round" stroke-linejoin="round"/>
<path d="M3.76436 13.1767C4.41411 13.1767 4.94083 12.6499 4.94083 12.0002C4.94083 11.3505 4.41411 10.8237 3.76436 10.8237C3.11461 10.8237 2.58789 11.3505 2.58789 12.0002C2.58789 12.6499 3.11461 13.1767 3.76436 13.1767Z" fill="#35333A" stroke="#35333A" stroke-width="1.17647" stroke-linecap="round" stroke-linejoin="round"/>
</svg>
