<svg width="18" height="16" viewBox="0 0 18 16" fill="none" xmlns="http://www.w3.org/2000/svg">
<path d="M15.1283 2.79764C14.7742 2.44337 14.3538 2.16234 13.8911 1.9706C13.4283 1.77886 12.9323 1.68018 12.4315 1.68018C11.9306 1.68018 11.4346 1.77886 10.9718 1.9706C10.5091 2.16234 10.0887 2.44337 9.73456 2.79764L8.99967 3.53252L8.26478 2.79764C7.54952 2.08238 6.57942 1.68055 5.56789 1.68055C4.55636 1.68055 3.58626 2.08238 2.871 2.79764C2.15574 3.5129 1.75391 4.483 1.75391 5.49453C1.75391 6.50606 2.15574 7.47616 2.871 8.19142L3.60588 8.92631L8.99967 14.3201L14.3935 8.92562L15.1283 8.19073C15.4826 7.83663 15.7636 7.4162 15.9554 6.95346C16.1471 6.49071 16.2458 5.99473 16.2458 5.49384C16.2458 4.99294 16.1471 4.49696 15.9554 4.03422C15.7636 3.57148 15.4826 3.15104 15.1283 2.79694V2.79764Z" stroke="#35333A" stroke-width="2" stroke-linecap="round" stroke-linejoin="round"/>
</svg>
