<svg width="24" height="24" viewBox="0 0 24 24" fill="none" xmlns="http://www.w3.org/2000/svg">
<path d="M19.4971 3.56543H4.50259C3.98501 3.56543 3.56543 3.98501 3.56543 4.50259V19.4971C3.56543 20.0147 3.98501 20.4343 4.50259 20.4343H19.4971C20.0147 20.4343 20.4343 20.0147 20.4343 19.4971V4.50259C20.4343 3.98501 20.0147 3.56543 19.4971 3.56543Z" stroke="#35333A" stroke-width="2" stroke-linecap="round" stroke-linejoin="round"/>
<path d="M8.72019 10.1259C9.49656 10.1259 10.1259 9.49656 10.1259 8.72019C10.1259 7.94382 9.49656 7.31445 8.72019 7.31445C7.94382 7.31445 7.31445 7.94382 7.31445 8.72019C7.31445 9.49656 7.94382 10.1259 8.72019 10.1259Z" fill="#35333A"/>
<path d="M20.434 14.8118L15.7482 10.126L5.43945 20.4347" stroke="#35333A" stroke-width="2" stroke-linecap="round" stroke-linejoin="round"/>
</svg>
