<svg width="36" height="36" viewBox="0 0 36 36" fill="none" xmlns="http://www.w3.org/2000/svg">
<path d="M17.6928 14.8052C15.9398 14.8052 14.5137 16.2314 14.5137 17.9843C14.5137 19.7373 15.9398 21.1635 17.6928 21.1635C19.4458 21.1635 20.8719 19.7373 20.8719 17.9843C20.8719 16.2314 19.4458 14.8052 17.6928 14.8052Z" fill="#35333A"/>
<path d="M21.6881 10.189H13.6976C12.5302 10.189 11.556 10.5442 10.8804 11.2161C10.2019 11.891 9.84326 12.8686 9.84326 14.0433V21.9897C9.84326 23.1816 10.2175 24.1749 10.9254 24.8621C11.617 25.5334 12.5909 25.8883 13.7419 25.8883H21.6439C22.8238 25.8883 23.8081 25.536 24.4906 24.8695C25.1787 24.1975 25.5425 23.217 25.5425 22.0339V14.0433C25.5425 12.8934 25.1838 11.9242 24.5052 11.2404C23.8226 10.5526 22.8484 10.189 21.6881 10.189ZM17.6929 22.9345C14.9633 22.9345 12.7425 20.7137 12.7425 17.9842C12.7425 15.2547 14.9633 13.0339 17.6929 13.0339C20.4225 13.0339 22.6431 15.2546 22.6431 17.9842C22.6431 20.7138 20.4224 22.9345 17.6929 22.9345ZM22.8295 14.0372C22.2088 14.0372 21.7056 13.5339 21.7056 12.9131C21.7056 12.2924 22.2088 11.7892 22.8295 11.7892C23.4503 11.7892 23.9535 12.2924 23.9535 12.9131C23.9535 13.5339 23.4503 14.0372 22.8295 14.0372Z" fill="#35333A"/>
<path d="M17.85 0C8.00549 0 0.0244141 7.97964 0.0244141 17.8241C0.0244141 27.6686 8.00549 35.6497 17.85 35.6497C27.6937 35.6497 35.6748 27.6687 35.6748 17.8241C35.6748 7.97957 27.6937 0 17.85 0ZM27.3135 22.034C27.3135 23.7052 26.7652 25.1239 25.7279 26.1368C24.7078 27.133 23.2954 27.6596 21.6438 27.6596H13.7417C12.121 27.6596 10.7204 27.1317 9.6916 26.133C8.632 25.1045 8.07193 23.6718 8.07193 21.9898V14.0434C8.07193 10.6787 10.3327 8.41794 13.6974 8.41794H21.688C23.3308 8.41794 24.7396 8.96251 25.7621 9.99281C26.7771 11.0154 27.3135 12.4162 27.3135 14.0434V22.034Z" fill="#35333A"/>
</svg>
