<svg width="24" height="24" viewBox="0 0 24 24" fill="none" xmlns="http://www.w3.org/2000/svg">
<path d="M4.97816 4.97803H19.0222C19.4873 4.97942 19.9331 5.16482 20.262 5.49374C20.5909 5.82266 20.7763 6.26837 20.7777 6.73353V17.2665C20.7763 17.7317 20.5909 18.1774 20.262 18.5063C19.9331 18.8353 19.4873 19.0207 19.0222 19.022H4.97816C4.513 19.0207 4.06729 18.8353 3.73837 18.5063C3.40945 18.1774 3.22405 17.7317 3.22266 17.2665V6.73353C3.22405 6.26837 3.40945 5.82266 3.73837 5.49374C4.06729 5.16482 4.513 4.97942 4.97816 4.97803Z" stroke="#35333A" stroke-width="2" stroke-linecap="round" stroke-linejoin="round"/>
<path d="M20.7777 6.7334L12.0002 12.8777L3.22266 6.7334" stroke="#35333A" stroke-width="2" stroke-linecap="round" stroke-linejoin="round"/>
</svg>
