<svg width="24" height="28" viewBox="0 0 24 28" fill="none" xmlns="http://www.w3.org/2000/svg">
<path d="M11.9998 22.0002C16.418 22.0002 19.9997 18.4185 19.9997 14.0003C19.9997 9.58214 16.418 6.00049 11.9998 6.00049C7.58165 6.00049 4 9.58214 4 14.0003C4 18.4185 7.58165 22.0002 11.9998 22.0002Z" stroke="#35333A" stroke-width="2" stroke-linecap="round" stroke-linejoin="round"/>
<path d="M12 10.5713V13.9998L13.7143 15.714" stroke="#35333A" stroke-width="2" stroke-linecap="round" stroke-linejoin="round"/>
<path d="M17.1538 20.1146L16.7538 24.4916C16.7023 25.0615 16.4389 25.5913 16.0157 25.9764C15.5925 26.3615 15.0403 26.5739 14.4681 26.5716H9.51964C8.94746 26.5739 8.39522 26.3615 7.97202 25.9764C7.54883 25.5913 7.28547 25.0615 7.23398 24.4916L6.83398 20.1146M6.84541 7.88623L7.2454 3.50918C7.29672 2.94128 7.55846 2.41307 7.97923 2.02824C8.40001 1.64341 8.94943 1.42976 9.51964 1.42922H14.491C15.0632 1.4269 15.6154 1.63927 16.0386 2.02438C16.4618 2.40948 16.7251 2.93931 16.7766 3.50918L17.1766 7.88623" stroke="#35333A" stroke-width="2" stroke-linecap="round" stroke-linejoin="round"/>
</svg>
