<svg width="24" height="24" viewBox="0 0 24 24" fill="none" xmlns="http://www.w3.org/2000/svg">
<g clip-path="url(#clip0_1063_44)">
<mask id="mask0_1063_44" style="mask-type:luminance" maskUnits="userSpaceOnUse" x="0" y="0" width="24" height="24">
<path d="M24 0H0V24H24V0Z" fill="white"/>
</mask>
<g mask="url(#mask0_1063_44)">
<path d="M12 17C14.7614 17 17 14.7614 17 12C17 9.23858 14.7614 7 12 7C9.23858 7 7 9.23858 7 12C7 14.7614 9.23858 17 12 17Z" stroke="#35333A" stroke-width="2" stroke-linecap="round" stroke-linejoin="round"/>
<path d="M12 1V3" stroke="#35333A" stroke-width="2" stroke-linecap="round" stroke-linejoin="round"/>
<path d="M12 21V23" stroke="#35333A" stroke-width="2" stroke-linecap="round" stroke-linejoin="round"/>
<path d="M4.21973 4.21973L5.63973 5.63973" stroke="#35333A" stroke-width="2" stroke-linecap="round" stroke-linejoin="round"/>
<path d="M18.3604 18.3604L19.7804 19.7804" stroke="#35333A" stroke-width="2" stroke-linecap="round" stroke-linejoin="round"/>
<path d="M1 12H3" stroke="#35333A" stroke-width="2" stroke-linecap="round" stroke-linejoin="round"/>
<path d="M21 12H23" stroke="#35333A" stroke-width="2" stroke-linecap="round" stroke-linejoin="round"/>
<path d="M4.21973 19.7804L5.63973 18.3604" stroke="#35333A" stroke-width="2" stroke-linecap="round" stroke-linejoin="round"/>
<path d="M18.3604 5.63973L19.7804 4.21973" stroke="#35333A" stroke-width="2" stroke-linecap="round" stroke-linejoin="round"/>
</g>
</g>
<defs>
<clipPath id="clip0_1063_44">
<rect width="24" height="24" fill="white"/>
</clipPath>
</defs>
</svg>
