<svg width="24" height="24" viewBox="0 0 24 24" fill="none" xmlns="http://www.w3.org/2000/svg">
<path d="M11.9994 6.57013C10.8331 6.57013 9.8877 5.62468 9.8877 4.4584C9.8877 3.29213 10.8331 2.34668 11.9994 2.34668C13.1657 2.34668 14.1111 3.29213 14.1111 4.4584C14.1099 5.62416 13.1652 6.56889 11.9994 6.57013Z" fill="#35333A"/>
<path d="M18.6373 6.60043L18.6203 6.60495L18.6045 6.60985C18.5668 6.62041 18.5291 6.63173 18.4913 6.64342C17.7896 6.84931 14.3837 7.80939 11.9842 7.80939C9.75444 7.80939 6.65661 6.97978 5.66561 6.69809C5.56698 6.65996 5.46626 6.62748 5.36393 6.6008C4.64745 6.41226 4.15723 7.14005 4.15723 7.80524C4.15723 8.46403 4.74927 8.77777 5.34696 9.0029V9.01345L8.93765 10.1349C9.30457 10.2756 9.40261 10.4192 9.4505 10.5437C9.60624 10.943 9.4818 11.7338 9.43768 12.0098L9.21896 13.7067L8.00509 20.3508C8.00132 20.3689 7.99793 20.3873 7.99491 20.4062L7.98624 20.4541C7.89875 21.0631 8.34599 21.654 9.19294 21.654C9.93205 21.654 10.2582 21.1438 10.3997 20.4496C10.5411 19.7553 11.4555 14.5077 11.9835 14.5077C12.5114 14.5077 13.5989 20.4496 13.5989 20.4496C13.7403 21.1438 14.0665 21.654 14.8056 21.654C15.6548 21.654 16.1021 21.0605 16.0123 20.4496C16.0044 20.3975 15.995 20.3462 15.9837 20.2965L14.7532 13.7075L14.5349 12.0106C14.3769 11.0222 14.5039 10.6956 14.5469 10.6191C14.5481 10.6173 14.5491 10.6154 14.55 10.6134C14.5907 10.538 14.7762 10.3691 15.2091 10.2066L18.5758 9.02967C18.5965 9.02417 18.6169 9.01762 18.6369 9.01006C19.2403 8.78381 19.8436 8.47082 19.8436 7.806C19.8436 7.14118 19.3538 6.41226 18.6373 6.60043Z" fill="#35333A"/>
</svg>
