<svg width="24" height="24" viewBox="0 0 24 24" fill="none" xmlns="http://www.w3.org/2000/svg">
<path d="M4.97816 4.97754H19.0222C19.4873 4.97893 19.9331 5.16433 20.262 5.49325C20.5909 5.82217 20.7763 6.26788 20.7777 6.73304V17.2661C20.7763 17.7312 20.5909 18.177 20.262 18.5059C19.9331 18.8348 19.4873 19.0202 19.0222 19.0216H4.97816C4.513 19.0202 4.06729 18.8348 3.73837 18.5059C3.40945 18.177 3.22405 17.7312 3.22266 17.2661V6.73304C3.22405 6.26788 3.40945 5.82217 3.73837 5.49325C4.06729 5.16433 4.513 4.97893 4.97816 4.97754Z" stroke="#35333A" stroke-width="2" stroke-linecap="round" stroke-linejoin="round"/>
<path d="M20.7777 6.7334L12.0002 12.8777L3.22266 6.7334" stroke="#35333A" stroke-width="2" stroke-linecap="round" stroke-linejoin="round"/>
</svg>
