<svg width="24" height="24" viewBox="0 0 24 24" fill="none" xmlns="http://www.w3.org/2000/svg">
<path d="M12.0004 6.56965C10.8341 6.56965 9.88867 5.6242 9.88867 4.45792C9.88867 3.29164 10.8341 2.34619 12.0004 2.34619C13.1667 2.34619 14.1121 3.29164 14.1121 4.45792C14.1109 5.62368 13.1662 6.5684 12.0004 6.56965Z" fill="#35333A"/>
<path d="M18.6373 6.59994L18.6203 6.60446L18.6045 6.60936C18.5668 6.61992 18.529 6.63124 18.4913 6.64292C17.7896 6.84882 14.3836 7.8089 11.9842 7.8089C9.75444 7.8089 6.65661 6.97929 5.66561 6.6976C5.56698 6.65947 5.46626 6.62698 5.36393 6.60031C4.64745 6.41177 4.15723 7.13956 4.15723 7.80475C4.15723 8.46354 4.74927 8.77728 5.34696 9.0024V9.01296L8.93765 10.1344C9.30456 10.2751 9.40261 10.4188 9.4505 10.5432C9.60624 10.9426 9.4818 11.7333 9.43768 12.0094L9.21896 13.7063L8.00509 20.3503C8.00132 20.3684 7.99793 20.3869 7.99491 20.4057L7.98624 20.4536C7.89875 21.0626 8.34599 21.6535 9.19294 21.6535C9.93205 21.6535 10.2582 21.1433 10.3996 20.4491C10.5411 19.7549 11.4555 14.5072 11.9834 14.5072C12.5114 14.5072 13.5989 20.4491 13.5989 20.4491C13.7403 21.1433 14.0665 21.6535 14.8056 21.6535C15.6548 21.6535 16.1021 21.06 16.0123 20.4491C16.0044 20.3971 15.995 20.3458 15.9837 20.296L14.7532 13.707L14.5349 12.0101C14.3769 11.0217 14.5039 10.6952 14.5469 10.6186C14.5481 10.6168 14.5491 10.6149 14.5499 10.613C14.5907 10.5376 14.7762 10.3686 15.2091 10.2061L18.5758 9.02918C18.5965 9.02368 18.6169 9.01713 18.6369 9.00957C19.2402 8.78332 19.8436 8.47033 19.8436 7.80551C19.8436 7.14069 19.3538 6.41177 18.6373 6.59994Z" fill="#35333A"/>
</svg>
