<svg width="611" height="316" viewBox="0 0 611 316" fill="none" xmlns="http://www.w3.org/2000/svg">
<path d="M465.612 1.7277L463.484 0.498047L415.232 28.5554L417.347 27.3257L419.475 28.5553L465.612 1.7277Z" fill="#35333A"/>
<path d="M465.914 55.3829L419.475 28.5557L417.36 29.7853L463.799 56.6126L465.914 55.3829Z" fill="#35333A"/>
<path d="M419.475 28.5549L417.347 27.3252L415.232 28.5549L369.095 55.3825L371.209 54.1528L373.338 55.3825L417.361 29.7845L419.475 28.5549Z" fill="#35333A"/>
<path d="M373.338 55.383L371.21 54.1533L369.095 55.383L322.958 82.2106L325.075 80.9791L327.204 82.2088L373.338 55.383Z" fill="#35333A"/>
<path d="M327.204 82.2092L325.075 80.9795L322.958 82.211L276.82 109.039L278.938 107.807L281.067 109.037L327.204 82.2092Z" fill="#35333A"/>
<path d="M327.506 135.863L281.067 109.036L278.949 110.268L325.388 137.095L327.506 135.863Z" fill="#35333A"/>
<path d="M281.067 109.036L278.938 107.807L276.82 109.038L230.683 135.866L232.801 134.634L234.93 135.864L278.949 110.268L281.067 109.036Z" fill="#35333A"/>
<path d="M234.93 135.864L232.801 134.635L230.683 135.866L184.546 162.694L186.664 161.462L188.792 162.692L234.93 135.864Z" fill="#35333A"/>
<path d="M188.792 162.692L186.664 161.462L184.546 162.693L138.409 189.521L140.527 188.29L142.655 189.519L188.792 162.692Z" fill="#35333A"/>
<path d="M142.655 189.52L140.526 188.29L138.408 189.522L92.2744 216.347L94.3892 215.118L96.5178 216.347L142.655 189.52Z" fill="#35333A"/>
<path d="M142.957 243.174L96.5176 216.347L94.4028 217.576L140.842 244.404L142.957 243.174Z" fill="#35333A"/>
<path d="M96.5178 216.347L94.3892 215.117L92.2744 216.347L46.1372 243.175L48.252 241.945L50.3806 243.175L94.403 217.577L96.5178 216.347Z" fill="#35333A"/>
<path d="M48.5506 295.598L4.24333 270.002L2.12858 271.232L0 270.002L2.11474 268.772L0 270.002L48.5677 298.059L46.4359 296.827L48.5506 295.598Z" fill="#35333A"/>
<path d="M50.3806 243.175L48.252 241.945L46.1372 243.175L2.11474 268.773L0 270.003L2.12858 271.232L4.24333 270.003L50.3806 243.175Z" fill="#35333A"/>
<path d="M556.359 54.1505L509.92 27.3232L507.805 28.5529L554.244 55.3801L556.359 54.1505Z" fill="#35333A"/>
<path d="M419.777 82.21L417.646 80.9785L369.394 109.036L371.525 110.267L369.394 109.036L371.511 107.804L373.643 109.036L419.777 82.21Z" fill="#35333A"/>
<path d="M417.951 134.632L373.643 109.036L371.511 107.805L369.394 109.036L371.525 110.268L415.833 135.863L417.951 134.632Z" fill="#35333A"/>
<path d="M281.368 162.691L279.237 161.46L230.981 189.519L233.099 188.288L235.231 189.519L281.368 162.691Z" fill="#35333A"/>
<path d="M235.231 189.519L233.099 188.287L230.981 189.519L184.844 216.346L186.976 217.578L184.844 216.346L186.962 215.115L189.094 216.346L235.231 189.519Z" fill="#35333A"/>
<path d="M233.401 241.942L189.094 216.347L186.962 215.115L184.844 216.347L186.976 217.578L231.283 243.174L233.401 241.942Z" fill="#35333A"/>
<path d="M94.9899 322.425L48.5508 295.598L46.436 296.827L48.5678 298.059L95.0069 324.886L92.8751 323.655L94.9899 322.425Z" fill="#35333A"/>
<path d="M141.127 295.598L94.688 268.771L92.5732 270L141.144 298.059L139.012 296.827L141.127 295.598Z" fill="#35333A"/>
<path d="M602.798 80.9775L558.491 55.3818L556.376 56.6115L602.815 83.4387L600.683 82.2072L602.798 80.9775Z" fill="#35333A"/>
<path d="M558.491 55.3819L556.359 54.1504L508.107 82.2077L510.222 80.978L512.353 82.2095L556.376 56.6116L558.491 55.3819Z" fill="#35333A"/>
<path d="M512.354 82.21L510.222 80.9785L508.107 82.2082L461.97 109.036L464.084 107.806L466.216 109.038L512.354 82.21Z" fill="#35333A"/>
<path d="M510.524 134.633L466.216 109.037L464.102 110.267L510.541 137.094L508.409 135.862L510.524 134.633Z" fill="#35333A"/>
<path d="M466.216 109.037L464.085 107.806L461.97 109.035L415.833 135.863L417.95 134.631L420.082 135.863L464.102 110.267L466.216 109.037Z" fill="#35333A"/>
<path d="M420.082 135.863L417.95 134.632L415.833 135.863L369.695 162.691L371.813 161.459L373.945 162.691L420.082 135.863Z" fill="#35333A"/>
<path d="M373.945 162.69L371.813 161.459L369.695 162.691L323.558 189.518L325.676 188.287L327.808 189.518L373.945 162.69Z" fill="#35333A"/>
<path d="M327.808 189.519L325.676 188.287L323.558 189.519L277.421 216.346L279.553 217.578L327.808 189.519Z" fill="#35333A"/>
<path d="M279.84 268.77L235.533 243.174L233.415 244.405L277.722 270.001L279.84 268.77Z" fill="#35333A"/>
<path d="M235.533 243.174L233.401 241.942L185.149 270L187.264 268.77L189.396 270.002L233.415 244.405L235.533 243.174Z" fill="#35333A"/>
<path d="M189.396 270.001L187.264 268.77L185.149 269.999L141.127 295.597L139.012 296.827L141.144 298.058L189.396 270.001Z" fill="#35333A"/>
<path d="M649.237 107.805L602.798 80.9775L600.683 82.2072L602.815 83.4387L649.254 110.266L647.122 109.034L649.237 107.805Z" fill="#35333A"/>
<path d="M558.792 109.037L556.661 107.806L510.523 134.633L508.409 135.863L510.54 137.094L558.792 109.037Z" fill="#35333A"/>
<path d="M510.829 188.286L466.521 162.69L464.403 163.922L510.842 190.749L508.711 189.518L510.829 188.286Z" fill="#35333A"/>
<path d="M466.521 162.69L464.389 161.459L416.134 189.518L418.252 188.287L420.384 189.518L464.403 163.922L466.521 162.69Z" fill="#35333A"/>
<path d="M420.384 189.518L418.252 188.286L416.134 189.518L369.997 216.345L372.129 217.577L420.384 189.518Z" fill="#35333A"/>
<path d="M372.417 268.77L328.11 243.174L325.992 244.405L372.431 271.233L370.299 270.001L372.417 268.77Z" fill="#35333A"/>
<path d="M328.11 243.173L325.978 241.941L277.723 270.001L279.841 268.769L281.972 270.001L325.992 244.404L328.11 243.173Z" fill="#35333A"/>
<path d="M281.972 270.001L279.84 268.77L277.722 270.001L231.588 296.827L233.703 295.597L235.835 296.829L281.972 270.001Z" fill="#35333A"/>
<path d="M235.835 296.828L233.703 295.597L231.588 296.826L185.451 323.654L187.566 322.424L189.698 323.656L235.835 296.828Z" fill="#35333A"/>
<path d="M605.231 135.864L603.1 134.633L554.848 162.69L556.962 161.46L559.094 162.692L605.231 135.864Z" fill="#35333A"/>
<path d="M559.094 162.691L556.962 161.46L554.848 162.69L508.71 189.517L510.842 190.749L508.71 189.517L510.828 188.286L512.96 189.517L559.094 162.691Z" fill="#35333A"/>
<path d="M557.267 215.113L512.96 189.518L510.828 188.286L508.71 189.518L510.842 190.749L555.15 216.345L557.267 215.113Z" fill="#35333A"/>
<path d="M466.823 216.345L464.691 215.113L416.436 243.172L418.554 241.941L420.686 243.172L466.823 216.345Z" fill="#35333A"/>
<path d="M464.993 268.769L420.686 243.173L418.568 244.404L462.875 270L464.993 268.769Z" fill="#35333A"/>
<path d="M420.686 243.173L418.554 241.941L416.436 243.173L372.417 268.769L370.299 270.001L372.431 271.232L418.568 244.404L420.686 243.173Z" fill="#35333A"/>
<path d="M372.719 322.424L328.411 296.828L326.293 298.06L372.733 324.887L370.601 323.655L372.719 322.424Z" fill="#35333A"/>
<path d="M328.411 296.828L326.279 295.597L278.027 323.654L280.159 324.886L326.293 298.06L328.411 296.828Z" fill="#35333A"/>
<path d="M649.841 215.115L605.534 189.52L603.419 190.749L649.858 217.576L647.726 216.345L649.841 215.115Z" fill="#35333A"/>
<path d="M605.533 189.519L603.401 188.287L555.149 216.344L557.267 215.113L559.399 216.344L603.418 190.748L605.533 189.519Z" fill="#35333A"/>
<path d="M559.399 216.345L557.267 215.113L555.149 216.345L509.012 243.172L511.144 244.404L559.399 216.345Z" fill="#35333A"/>
<path d="M511.432 295.596L467.125 270L465.007 271.232L511.446 298.059L509.314 296.827L511.432 295.596Z" fill="#35333A"/>
<path d="M467.125 270L464.993 268.769L416.738 296.828L418.856 295.596L420.988 296.828L465.007 271.232L467.125 270Z" fill="#35333A"/>
<path d="M420.988 296.828L418.856 295.597L416.738 296.828L372.719 322.424L370.601 323.656L372.732 324.887L420.988 296.828Z" fill="#35333A"/>
<path d="M605.839 243.172L603.707 241.94L555.452 270L557.583 271.231L555.452 270L557.57 268.768L559.701 270L605.839 243.172Z" fill="#35333A"/>
<path d="M604.009 295.596L559.701 270L557.57 268.769L555.452 270L557.583 271.232L601.891 296.827L604.009 295.596Z" fill="#35333A"/>
<path d="M557.871 322.423L511.432 295.596L509.314 296.827L555.754 323.654L557.871 322.423Z" fill="#35333A"/>
<path d="M606.137 296.825L604.009 295.596L555.753 323.655L557.871 322.423L560 323.653L606.137 296.825Z" fill="#35333A"/>
</svg>
