<svg width="24" height="24" viewBox="0 0 24 24" fill="none" xmlns="http://www.w3.org/2000/svg">
<path d="M21.1925 4.19621C20.6614 3.66481 20.0307 3.24326 19.3366 2.95566C18.6425 2.66805 17.8985 2.52002 17.1472 2.52002C16.3958 2.52002 15.6519 2.66805 14.9577 2.95566C14.2636 3.24326 13.633 3.66481 13.1018 4.19621L11.9995 5.29854L10.8972 4.19621C9.82429 3.12332 8.36913 2.52058 6.85184 2.52058C5.33454 2.52058 3.87939 3.12332 2.80649 4.19621C1.7336 5.2691 1.13086 6.72425 1.13086 8.24155C1.13086 9.75885 1.7336 11.214 2.80649 12.2869L3.90882 13.3892L11.9995 21.4799L20.0902 13.3882L21.1925 12.2859C21.7239 11.7547 22.1455 11.1241 22.4331 10.4299C22.7207 9.73583 22.8687 8.99185 22.8687 8.24051C22.8687 7.48917 22.7207 6.7452 22.4331 6.05108C22.1455 5.35697 21.7239 4.72632 21.1925 4.19517V4.19621Z" stroke="#35333A" stroke-width="2" stroke-linecap="round" stroke-linejoin="round"/>
</svg>
