<svg width="36" height="36" viewBox="0 0 36 36" fill="none" xmlns="http://www.w3.org/2000/svg">
<path d="M17.8734 0C8.02892 0 0.0478516 7.98107 0.0478516 17.8256C0.0478516 27.6715 8.02892 35.6511 17.8734 35.6511C27.7172 35.6511 35.6982 27.6715 35.6982 17.8256C35.6982 7.98107 27.7172 0 17.8734 0ZM27.8013 26.4838C27.8013 27.277 27.1432 27.9189 26.3309 27.9189H9.38055C8.56756 27.9189 7.91014 27.277 7.91014 26.4838V9.33552C7.91014 8.54374 8.56756 7.90051 9.38055 7.90051H26.3309C27.1432 7.90051 27.8013 8.54374 27.8013 9.33552V26.4838Z" fill="#35333A"/>
<path d="M21.3139 15.4077C19.7198 15.4077 19.0058 16.2828 18.6057 16.8993V16.929H18.586C18.593 16.9205 18.6001 16.9092 18.6057 16.8993V15.6197H15.6021C15.6409 16.4666 15.6021 24.657 15.6021 24.657H18.6057V19.6096C18.6057 19.3381 18.6255 19.0709 18.7047 18.8772C18.9224 18.3386 19.4173 17.7773 20.2465 17.7773C21.3344 17.7773 21.7684 18.6072 21.7684 19.8217V24.657H24.7728V19.4753C24.7728 16.6985 23.2905 15.4077 21.3139 15.4077Z" fill="#35333A"/>
<path d="M12.4573 11.2607C11.4301 11.2607 10.7578 11.9366 10.7578 12.823C10.7578 13.6897 11.4096 14.3853 12.4177 14.3853H12.4374C13.4851 14.3853 14.1376 13.6897 14.1376 12.823C14.1178 11.9366 13.4851 11.2607 12.4573 11.2607Z" fill="#35333A"/>
<path d="M13.9402 15.6196H10.9351V24.6568H13.9402V15.6196Z" fill="#35333A"/>
</svg>
