<svg width="24" height="24" viewBox="0 0 24 24" fill="none" xmlns="http://www.w3.org/2000/svg">
<path d="M7.59906 11.0908L11.2353 2.90918C11.9586 2.90918 12.6523 3.19651 13.1638 3.70796C13.6752 4.21941 13.9626 4.91309 13.9626 5.63639V9.27267H19.1079C19.3714 9.26969 19.6325 9.32404 19.8729 9.43196C20.1134 9.53988 20.3275 9.69878 20.5005 9.89767C20.6734 10.0966 20.801 10.3307 20.8745 10.5838C20.948 10.8369 20.9656 11.103 20.926 11.3635L19.6715 19.5452C19.6058 19.9787 19.3856 20.3739 19.0514 20.6579C18.7173 20.9419 18.2918 21.0955 17.8534 21.0906H7.59906M7.59906 11.0908V21.0906M7.59906 11.0908H4.87185C4.38965 11.0908 3.9272 11.2824 3.58623 11.6233C3.24526 11.9643 3.05371 12.4268 3.05371 12.909V19.2724C3.05371 19.7546 3.24526 20.2171 3.58623 20.5581C3.9272 20.899 4.38965 21.0906 4.87185 21.0906H7.59906" stroke="#35333A" stroke-width="2" stroke-linecap="round" stroke-linejoin="round"/>
</svg>
